<svg width="280" height="61" viewBox="0 0 280 61" fill="none" xmlns="http://www.w3.org/2000/svg">
<path d="M23.893 34.0408C18.3197 34.0409 12.9577 34.0409 7.3529 34.0409C7.3529 35.1646 7.35298 35.9939 7.35289 36.8232C7.3522 43.4103 7.37171 49.9974 7.34135 56.5843C7.32826 59.4232 6.01573 60.9623 3.72089 60.9993C1.39089 61.0369 0.0209741 59.5392 0.0172096 56.7141C-0.0060393 39.2778 -0.0050268 21.8415 0.0159894 4.40525C0.0194293 1.5517 1.32656 0.0437132 3.91321 0.0324689C14.5414 -0.0137289 25.1699 -0.00665843 35.7981 0.0287989C38.1692 0.0367141 39.6693 1.68262 39.6264 3.9845C39.5858 6.16039 38.169 7.49828 35.6988 7.50724C27.1254 7.53835 18.5518 7.52187 9.97826 7.52347C9.21249 7.52361 8.44673 7.52349 7.51765 7.52349C7.51765 13.884 7.51765 20.0356 7.51765 26.5279C8.23731 26.5279 8.98433 26.5279 9.73135 26.5279C15.6832 26.5286 21.6353 26.4949 27.5869 26.545C30.3832 26.5686 32.1152 28.7421 31.4171 31.2547C30.9677 32.8723 29.9902 33.9275 28.3545 33.9873C26.9388 34.039 25.5212 34.0255 23.893 34.0408Z" fill="#585DFB"/>
<path d="M58.2689 21.6795C62.3093 18.1425 66.7761 16.265 71.8837 16.3618C73.988 16.4017 75.3895 17.7093 75.5115 19.7736C75.6478 22.0786 74.5852 23.6154 72.3833 23.8745C69.5847 24.2038 66.7974 24.4708 64.3701 26.2374C59.7273 29.6166 57.1032 34.2392 57.1062 40.4686C57.1089 45.8824 57.1156 51.2964 57.0997 56.7102C57.0939 58.6719 56.1649 60.1944 54.6958 60.7801C52.6859 61.5813 50.2031 60.1113 50.202 57.7009C50.1986 50.1829 50.1017 42.63 50.7205 35.1582C51.1783 29.6307 54.3734 25.3466 58.2689 21.6795Z" fill="#6774FA"/>
<path d="M106.422 35.1378C110.234 35.137 113.854 35.137 117.491 35.137C117.157 31.0255 113.45 26.621 109.241 25.3565C103.951 23.7672 99.3979 25.251 95.8478 29.9491C92.521 34.3517 91.9392 39.4072 93.9146 44.6023C95.976 50.0237 99.912 52.9501 105.189 53.2356C108.096 53.3928 110.819 52.3932 113.253 50.4638C115.524 48.6641 117.317 48.8165 118.591 50.7039C119.903 52.6471 119.443 54.9048 117.173 56.6703C110.775 61.6484 103.863 62.4195 96.9503 58.5384C90.0909 54.6873 86.227 48.297 86.094 39.4784C85.9569 30.3833 89.7204 23.666 96.7604 19.559C103.214 15.7939 109.939 16.1413 116.113 20.6038C121.771 24.6934 125.064 30.546 125.188 38.2785C125.238 41.3865 123.963 42.893 121.143 42.9229C116.245 42.9748 111.346 42.9686 106.448 42.9243C103.895 42.9012 102.231 41.3724 102.165 39.1579C102.099 36.9689 103.621 35.4647 106.422 35.1378Z" fill="#758AF9"/>
<path d="M156.363 35.1378C160.227 35.137 163.896 35.137 167.581 35.137C167.243 31.0255 163.486 26.621 159.22 25.3565C153.859 23.7672 149.244 25.251 145.646 29.9491C142.274 34.3517 141.684 39.4072 143.687 44.6023C145.776 50.0237 149.765 52.9501 155.113 53.2356C158.06 53.3928 160.819 52.3932 163.286 50.4638C165.588 48.6641 167.405 48.8165 168.696 50.7039C170.026 52.6471 169.56 54.9048 167.26 56.6703C160.775 61.6484 153.77 62.4195 146.763 58.5384C139.811 54.6873 135.895 48.297 135.76 39.4784C135.621 30.3833 139.436 23.666 146.571 19.559C153.112 15.7939 159.928 16.1413 166.185 20.6038C171.919 24.6934 175.257 30.546 175.383 38.2785C175.433 41.3865 174.141 42.893 171.283 42.9229C166.319 42.9748 161.354 42.9686 156.39 42.9243C153.802 42.9012 152.116 41.3724 152.048 39.1579C151.982 36.9689 153.524 35.4647 156.363 35.1378Z" fill="#829FF7"/>
<path d="M223.835 51.123C218.487 57.5012 211.991 60.8208 204.208 60.9537C199.454 61.0349 194.698 60.9903 189.944 60.9625C187.302 60.947 185.974 59.5758 185.97 56.7092C185.944 39.1801 185.946 21.651 185.972 4.122C185.975 1.73998 187.404 -0.0206831 189.463 0.000183538C195.624 0.0626134 201.826 -0.170081 207.936 0.520055C218.933 1.76215 228.17 12.0394 229.842 24.0915C231.209 33.9443 229.889 43.0712 223.835 51.123ZM193.271 11.8538C193.271 25.0388 193.299 38.224 193.24 51.4086C193.231 53.296 193.702 54.0489 195.517 53.9502C198.207 53.8039 200.911 54.0055 203.604 53.8918C208.511 53.6845 212.941 51.9621 216.53 48.2236C222.749 41.7456 224.178 33.6479 222.581 24.7917C221.034 16.2118 216.3 10.3692 208.584 8.11914C204.962 7.06277 201.017 7.18244 197.21 7.06308C192.744 6.92301 193.313 6.47922 193.271 11.8538Z" fill="#8EB4F6"/>
<path d="M273.298 55.5235C267.016 61.7188 257.845 62.747 250.606 58.1522C243.421 53.5924 239.929 44.5889 241.136 35.4091C242.383 25.9218 251.369 17.7507 259.632 17.5119C269.552 17.2251 278.185 25.2256 279.68 35.3132C280.84 43.1369 278.876 50.015 273.298 55.5235ZM248.853 45.2528C251.859 51.7308 257.423 54.5972 263.836 52.9717C269.237 51.6025 273.191 45.6652 273.151 38.9821C273.116 33.1688 269.974 28.1788 264.943 25.9487C260.395 23.9326 254.777 25.2904 251.249 29.2585C247.623 33.3372 246.614 39.5901 248.853 45.2528Z" fill="#9BCAF5"/>
</svg>
