<svg width="20" height="20" viewBox="0 0 20 20" fill="none" xmlns="http://www.w3.org/2000/svg">
<g id="&#240;&#159;&#166;&#134; icon &#34;phone&#34;">
<path id="Vector" d="M14.4998 18.3334C11.0976 18.329 7.83593 16.9755 5.43017 14.5697C3.02441 12.164 1.67091 8.90231 1.6665 5.50005C1.6665 4.48339 2.07037 3.50837 2.78926 2.78948C3.50815 2.07059 4.48317 1.66672 5.49984 1.66672C5.71512 1.66508 5.93004 1.68462 6.1415 1.72505C6.34593 1.7553 6.54689 1.80555 6.7415 1.87505C6.87838 1.92308 7.00034 2.006 7.09535 2.11561C7.19035 2.22523 7.25509 2.35774 7.28317 2.50005L8.42484 7.50005C8.45561 7.63577 8.4519 7.77704 8.41406 7.91096C8.37621 8.04488 8.30543 8.16718 8.20817 8.26672C8.09984 8.38339 8.0915 8.39172 7.0665 8.92505C7.88733 10.7258 9.3275 12.1719 11.1248 13.0001C11.6665 11.9667 11.6748 11.9584 11.7915 11.8501C11.891 11.7528 12.0133 11.682 12.1473 11.6442C12.2812 11.6063 12.4225 11.6026 12.5582 11.6334L17.5582 12.7751C17.6959 12.807 17.8233 12.8735 17.9282 12.9683C18.0332 13.063 18.1123 13.1829 18.1582 13.3167C18.2285 13.5145 18.2815 13.7181 18.3165 13.9251C18.35 14.1345 18.3668 14.3463 18.3665 14.5584C18.3511 15.5707 17.9359 16.5358 17.2115 17.2431C16.487 17.9504 15.5122 18.3423 14.4998 18.3334Z" fill="black" fill-opacity="0.5"/>
</g>
</svg>
