<svg width="21" height="20" viewBox="0 0 21 20" fill="none" xmlns="http://www.w3.org/2000/svg">
<g id="&#240;&#159;&#166;&#134; icon &#34;whatsapp&#34;">
<path id="Vector" d="M19.9858 9.41021C19.6458 3.61037 14.3759 -0.859533 8.306 0.140447C4.12607 0.830433 0.776137 4.22035 0.12615 8.40023C-0.253843 10.8202 0.246167 13.1101 1.33615 15.0001L0.446153 18.31C0.246157 19.06 0.936123 19.74 1.67611 19.53L4.93605 18.63C6.41602 19.5 8.146 20 9.99596 20C15.6358 20 20.3158 15.0301 19.9858 9.41021ZM14.8859 13.7201C14.7959 13.9001 14.6859 14.0701 14.5459 14.2301C14.2959 14.5001 14.0259 14.7001 13.7259 14.8201C13.4259 14.9501 13.0959 15.0101 12.7459 15.0101C12.2359 15.0101 11.6859 14.8902 11.1159 14.6402C10.536 14.3902 9.96596 14.0601 9.39597 13.6501C8.81599 13.2301 8.276 12.7601 7.75601 12.2502C7.23602 11.7302 6.776 11.1802 6.35601 10.6102C5.94601 10.0402 5.61604 9.47021 5.37604 8.90022C5.13605 8.33023 5.01607 7.78029 5.01607 7.2603C5.01607 6.9203 5.07606 6.59031 5.19606 6.29031C5.31606 5.98032 5.50607 5.70034 5.77607 5.45034C6.09606 5.13035 6.44603 4.98035 6.81603 4.98035C6.95601 4.98035 7.09599 5.01034 7.22599 5.07034C7.35599 5.13034 7.476 5.22034 7.56601 5.35033L8.72599 6.99029C8.81599 7.12029 8.88598 7.23029 8.92598 7.34028C8.97598 7.45028 8.99598 7.55028 8.99598 7.65028C8.99598 7.77027 8.95598 7.89029 8.88598 8.01024C8.81599 8.13024 8.72599 8.25024 8.60599 8.37023L8.226 8.77022C8.166 8.83022 8.146 8.89022 8.146 8.97022C8.146 9.01022 8.156 9.05022 8.166 9.09022C8.186 9.13022 8.196 9.16022 8.206 9.19022C8.296 9.36021 8.45599 9.57021 8.67599 9.8302C8.90598 10.0902 9.14598 10.3602 9.40597 10.6202C9.67597 10.8902 9.93596 11.1302 10.206 11.3602C10.466 11.5802 10.6859 11.7302 10.8559 11.8202C10.8859 11.8302 10.9159 11.8502 10.9459 11.8602C10.9859 11.8802 11.0259 11.8802 11.0759 11.8802C11.1659 11.8802 11.2259 11.8502 11.2859 11.7902L11.6659 11.4102C11.7959 11.2802 11.9159 11.1902 12.0259 11.1302C12.1459 11.0602 12.2559 11.0202 12.3859 11.0202C12.4859 11.0202 12.5859 11.0402 12.6959 11.0902C12.8059 11.1402 12.9259 11.2002 13.0459 11.2902L14.7059 12.4702C14.8359 12.5601 14.9259 12.6701 14.9859 12.7901C15.0359 12.9201 15.0659 13.0401 15.0659 13.1801C15.0059 13.3501 14.9659 13.5401 14.8859 13.7201Z" fill="black" fill-opacity="0.5"/>
</g>
</svg>
