<svg width="20" height="20" viewBox="0 0 20 20" fill="none" xmlns="http://www.w3.org/2000/svg">
<g id="&#240;&#159;&#166;&#134; icon &#34;mail ru&#34;">
<path id="Vector" d="M9.65411 4.15075C11.1809 4.15075 12.6196 4.85628 13.674 5.95921V5.96246C13.674 5.43282 14.0158 5.03217 14.4883 5.03217H14.6083C15.3539 5.03217 15.5033 5.76507 15.5033 5.99634L15.5064 14.2276C15.4546 14.767 16.0408 15.0458 16.3664 14.6992C17.632 13.3422 19.1488 7.7162 15.5783 4.45889C12.2484 1.41851 7.77917 1.92079 5.403 3.62762C2.87745 5.44651 1.26313 9.46407 2.8312 13.2399C4.54365 17.3565 9.43912 18.5845 12.3528 17.3598C13.8277 16.739 14.5077 18.8145 12.9746 19.494C10.6641 20.5213 4.22491 20.4165 1.2175 14.9878C-0.814305 11.3207 -0.706809 4.86996 4.68427 1.52796C8.80476 -1.03033 14.2415 -0.321542 17.5189 3.24521C20.9438 6.97744 20.7456 13.9605 17.402 16.6751C15.8877 17.9096 13.639 16.709 13.6552 14.9103L13.6384 14.324C12.584 15.4126 11.1809 16.051 9.65411 16.051C6.63358 16.051 3.97429 13.2784 3.97429 10.1331C3.97429 6.95399 6.63358 4.15205 9.65411 4.15205V4.15075ZM13.4534 9.90576C13.339 7.60154 11.6984 6.21393 9.71598 6.21393H9.64099C7.35606 6.21393 6.08672 8.09014 6.08672 10.2172C6.08672 12.6022 7.6198 14.1083 9.63161 14.1083C11.8772 14.1083 13.3515 12.3957 13.459 10.3696L13.4534 9.90576Z" fill="black" fill-opacity="0.5"/>
</g>
</svg>
