<svg width="20" height="20" viewBox="0 0 20 20" fill="none" xmlns="http://www.w3.org/2000/svg">
<g id="&#240;&#159;&#166;&#134; icon &#34;instagram fill icon&#34;">
<path id="Vector" fill-rule="evenodd" clip-rule="evenodd" d="M5.87722 0.06C6.94389 0.0111091 7.28389 0 10 0C12.7166 0 13.0561 0.0116636 14.1222 0.06C15.1872 0.108336 15.9145 0.277782 16.5505 0.525C17.2177 0.776191 17.8221 1.16976 18.3216 1.67834C18.8303 2.17782 19.2239 2.78224 19.475 3.44945C19.7222 4.08555 19.8911 4.81278 19.94 5.87722C19.9889 6.94389 20 7.28389 20 10C20 12.7161 19.9884 13.0561 19.94 14.1228C19.8916 15.1872 19.7222 15.9145 19.475 16.5505C19.2195 17.2078 18.8772 17.7661 18.3216 18.3216C17.8222 18.8303 17.2177 19.2239 16.5505 19.475C15.9145 19.7222 15.1872 19.8911 14.1228 19.94C13.0561 19.9889 12.7161 20 10 20C7.28389 20 6.94389 19.9884 5.87722 19.94C4.81278 19.8916 4.08555 19.7222 3.44945 19.475C2.79222 19.2195 2.23389 18.8772 1.67834 18.3216C1.16967 17.8222 0.776073 17.2177 0.525 16.5505C0.277782 15.9145 0.108891 15.1872 0.06 14.1228C0.0111091 13.0561 0 12.7166 0 10C0 7.28334 0.0116636 6.94389 0.06 5.87778C0.108336 4.81278 0.277782 4.08555 0.525 3.44945C0.776191 2.78228 1.16976 2.17789 1.67834 1.67834C2.17781 1.16967 2.78223 0.776073 3.44945 0.525C4.08555 0.277782 4.81278 0.108891 5.87722 0.06ZM14.0411 1.86C12.9866 1.81222 12.67 1.80166 10 1.80166C7.33 1.80166 7.01334 1.81222 5.95889 1.86C4.98389 1.90445 4.45445 2.06722 4.10222 2.20445C3.63555 2.38555 3.30222 2.60222 2.95222 2.95222C2.60278 3.30222 2.38555 3.63555 2.20445 4.10222C2.06722 4.45445 1.90445 4.98389 1.86 5.95889C1.81222 7.01334 1.80166 7.33 1.80166 10C1.80166 12.67 1.81222 12.9866 1.86 14.0411C1.90445 15.0161 2.06722 15.5455 2.20445 15.8978C2.36465 16.3322 2.62017 16.7251 2.95222 17.0478C3.27485 17.3798 3.66783 17.6354 4.10222 17.7955C4.45445 17.9328 4.98389 18.0955 5.95889 18.14C7.01334 18.1878 7.32945 18.1984 10 18.1984C12.6705 18.1984 12.9866 18.1878 14.0411 18.14C15.0161 18.0955 15.5455 17.9328 15.8978 17.7955C16.3645 17.6145 16.6978 17.3978 17.0478 17.0478C17.3798 16.7252 17.6354 16.3322 17.7955 15.8978C17.9328 15.5455 18.0955 15.0161 18.14 14.0411C18.1878 12.9866 18.1984 12.67 18.1984 10C18.1984 7.33 18.1878 7.01334 18.14 5.95889C18.0955 4.98389 17.9328 4.45445 17.7955 4.10222C17.6145 3.63555 17.3978 3.30222 17.0478 2.95222C16.6978 2.60278 16.3645 2.38555 15.8978 2.20445C15.5455 2.06722 15.0161 1.90445 14.0411 1.86ZM8.72318 13.0826C9.128 13.2504 9.56182 13.3366 10 13.3366C10.885 13.3366 11.7336 12.9851 12.3594 12.3594C12.9852 11.7336 13.3367 10.8849 13.3367 10C13.3367 9.11509 12.9852 8.26636 12.3594 7.64062C11.7336 7.01487 10.885 6.66333 10 6.66333C9.56182 6.66333 9.128 6.74964 8.72318 6.91732C8.31827 7.085 7.95048 7.33077 7.64065 7.64062C7.33081 7.95046 7.08503 8.31827 6.91735 8.72309C6.74966 9.12791 6.66336 9.56182 6.66336 10C6.66336 10.4382 6.74966 10.8721 6.91735 11.2769C7.08503 11.6817 7.33081 12.0495 7.64065 12.3594C7.95048 12.6692 8.31827 12.915 8.72318 13.0826ZM6.3655 6.36546C7.32944 5.40153 8.63682 4.85999 10 4.85999C11.3633 4.85999 12.6706 5.40153 13.6345 6.36546C14.5985 7.3294 15.14 8.63682 15.14 10C15.14 11.3632 14.5985 12.6705 13.6345 13.6345C12.6706 14.5985 11.3633 15.14 10 15.14C8.63682 15.14 7.32944 14.5985 6.3655 13.6345C5.40156 12.6705 4.86003 11.3632 4.86003 10C4.86003 8.63682 5.40156 7.3294 6.3655 6.36546ZM16.2797 5.6258C16.5075 5.39794 16.6355 5.0889 16.6355 4.76666C16.6355 4.44442 16.5075 4.13538 16.2797 3.90753C16.0518 3.67967 15.7428 3.55166 15.4205 3.55166C15.0984 3.55166 14.7893 3.67967 14.5615 3.90753C14.3335 4.13538 14.2055 4.44442 14.2055 4.76666C14.2055 5.0889 14.3335 5.39794 14.5615 5.6258C14.7893 5.85365 15.0984 5.98166 15.4205 5.98166C15.7428 5.98166 16.0518 5.85365 16.2797 5.6258Z" fill="black" fill-opacity="0.5"/>
</g>
</svg>
