<svg width="47" height="30" viewBox="0 0 47 30" fill="none" xmlns="http://www.w3.org/2000/svg">
<g id="&#240;&#159;&#166;&#134; icon &#34;amex&#34;">
<path id="Vector" d="M2.4 0H44.4C45.7255 0 46.8 1.07454 46.8 2.4V27.6C46.8 28.9255 45.7255 30 44.4 30H2.4C1.07454 30 0 28.9255 0 27.6V2.4C0 1.07454 1.07454 0 2.4 0Z" fill="#585DFB"/>
<path id="Vector_2" d="M0.0149484 14.1413H2.26141L2.76793 12.9707H3.90193L4.40713 14.1413H8.82721V13.2464L9.22177 14.1452H11.5163L11.9109 13.2331V14.1414H22.8957L22.8906 12.2198H23.1031C23.2519 12.2248 23.2954 12.2379 23.2954 12.4734V14.1414H28.9767V13.6941C29.4351 13.9293 30.1478 14.1414 31.0856 14.1414H33.4757L33.9873 12.9708H35.1212L35.6215 14.1414H40.2274V13.0295L40.9249 14.1414H44.6158V6.79077H40.963V7.65885L40.4517 6.79077H36.7035V7.65885L36.2338 6.79077H31.171C30.3236 6.79077 29.5786 6.90411 28.9768 7.21995V6.79077H25.4831V7.21995C25.1001 6.89439 24.5783 6.79077 23.9981 6.79077H11.2337L10.3772 8.68923L9.49771 6.79077H5.47741V7.65885L5.03569 6.79077H1.60699L0.0146484 10.2855V14.1412H0.0148284L0.0149484 14.1413ZM14.1953 13.0811H12.8475L12.8425 8.95347L10.936 13.0811H9.78163L7.87015 8.94981V13.0811H5.19595L4.69075 11.9055H1.95313L1.44283 13.0811H0.0147684L2.36923 7.81083H4.32277L6.55891 12.8007V7.81083H8.70487L10.4255 11.3861L12.0062 7.81083H14.1953L14.1953 13.0811ZM4.24135 10.8117L3.34147 8.71071L2.44657 10.8117H4.24135ZM19.5594 13.081H15.1672V7.81077H19.5594V8.90823H16.482V9.85821H19.4856V10.9385H16.482V11.991H19.5593L19.5594 13.081ZM25.749 9.23019C25.749 10.0704 25.1636 10.5046 24.8226 10.6349C25.1102 10.7398 25.3561 10.9252 25.473 11.0787C25.6586 11.3409 25.6907 11.575 25.6907 12.0457V13.081H24.3645L24.3595 12.4164C24.3595 12.0993 24.3911 11.6432 24.152 11.3897C23.9599 11.2043 23.667 11.1641 23.1936 11.1641H21.7822V13.0811H20.4674V7.81077H23.4915C24.1634 7.81077 24.6585 7.82775 25.0835 8.06319C25.4995 8.29863 25.749 8.64231 25.749 9.23019ZM24.087 10.0127C23.9062 10.1178 23.6926 10.1213 23.4366 10.1213H21.8394V8.95071H23.4583C23.6874 8.95071 23.9265 8.96055 24.0819 9.04575C24.2524 9.12255 24.3579 9.28593 24.3579 9.51165C24.3579 9.74205 24.2575 9.92739 24.087 10.0127ZM27.8577 13.081H26.5162V7.81077H27.8577V13.081ZM43.4312 13.081H41.5681L39.076 9.12537V13.081H36.3983L35.8867 11.9055H33.1554L32.6592 13.081H31.1203C30.4813 13.081 29.672 12.9456 29.2139 12.4981C28.7518 12.0506 28.5114 11.4445 28.5114 10.4861C28.5114 9.70449 28.6551 8.98995 29.2201 8.42529C29.6452 8.00469 30.3109 7.81077 31.2169 7.81077H32.4898V8.94003H31.2436C30.7637 8.94003 30.4927 9.00843 30.2319 9.25221C30.0078 9.47415 29.854 9.89361 29.854 10.446C29.854 11.0106 29.971 11.4178 30.2153 11.6837C30.4177 11.8923 30.7857 11.9555 31.1317 11.9555H31.7222L33.5752 7.81095H35.5453L37.7715 12.7958V7.81101H39.7734L42.0846 11.4815V7.81101H43.4312V13.081ZM35.4393 10.8118L34.5293 8.71077L33.6245 10.8118H35.4393ZM46.7817 21.4966C46.4623 21.944 45.84 22.1709 44.9975 22.1709H42.4584V21.0405H44.9872C45.238 21.0405 45.4135 21.0089 45.5193 20.91C45.6192 20.8215 45.6756 20.6967 45.6747 20.5662C45.6747 20.4126 45.6109 20.2907 45.5141 20.2176C45.4187 20.1371 45.2798 20.1006 45.0508 20.1006C43.8163 20.0604 42.2761 20.1371 42.2761 18.4689C42.2761 17.7044 42.7827 16.8996 44.1625 16.8996H46.7814V15.8508H44.348C43.6138 15.8508 43.0802 16.0194 42.7025 16.2813V15.8508H39.1034C38.5277 15.8508 37.8521 15.9875 37.5326 16.2813V15.8508H31.1054V16.2813C30.594 15.9278 29.731 15.8508 29.3325 15.8508H25.0931V16.2813C24.6884 15.9058 23.7886 15.8508 23.24 15.8508H18.4954L17.4097 16.9766L16.3928 15.8508H9.30499V23.2062H16.259L17.3777 22.0625L18.4316 23.2062L22.7182 23.2098V21.4796H23.1394C23.7082 21.488 24.379 21.4659 24.9708 21.2208V23.2059H28.5065V21.2888H28.677C28.8947 21.2888 28.9161 21.2975 28.9161 21.5057V23.2057H39.6567C40.3385 23.2057 41.0514 23.0385 41.4462 22.735V23.2057H44.8529C45.5618 23.2057 46.2542 23.1105 46.781 22.8668L46.7811 21.4964L46.7817 21.4966ZM25.4853 18.6673C25.4853 20.1317 24.345 20.434 23.1957 20.434H21.5551V22.2021H18.9997L17.3806 20.457L15.6981 22.2021H10.49V16.9306H15.7781L17.3958 18.6585L19.0683 16.9306H23.2695C24.3129 16.9306 25.4853 17.2074 25.4853 18.6673ZM15.032 21.0933H11.7994V20.0445H14.686V18.969H11.7994V18.0105H15.0957L16.5338 19.5468L15.032 21.0933ZM20.2406 21.6969L18.222 19.5496L20.2406 17.4706V21.6969ZM23.2261 19.353H21.527V18.0105H23.2413C23.716 18.0105 24.0456 18.1959 24.0456 18.6569C24.0456 19.1128 23.7313 19.353 23.2261 19.353ZM32.1277 16.9306H36.516V18.0208H33.4371V18.9792H36.4408V20.0547H33.4371V21.1035L36.5159 21.1083V22.2021H32.1276L32.1277 16.9306ZM30.4405 19.7523C30.7332 19.8558 30.9724 20.0413 31.0846 20.1948C31.2703 20.4523 31.2971 20.6925 31.3024 21.1571V22.2021H29.9823V21.5426C29.9823 21.2255 30.0142 20.7559 29.7698 20.5107C29.5777 20.3219 29.2848 20.2768 28.8052 20.2768H27.4V22.2022H26.0788V16.9307H29.1145C29.7801 16.9307 30.2649 16.9589 30.6964 17.1794C31.1113 17.4197 31.3724 17.7486 31.3724 18.3501C31.3723 19.1914 30.7866 19.6208 30.4405 19.7523ZM29.6974 19.0859C29.5215 19.1859 29.3041 19.1946 29.0484 19.1946H27.451V18.0107H29.0699C29.3041 18.0107 29.5384 18.0155 29.6974 18.1059C29.8678 18.1913 29.9697 18.3546 29.9697 18.5801C29.9697 18.8055 29.8678 18.9872 29.6974 19.0859ZM41.5666 19.4217C41.8228 19.6755 41.9599 19.996 41.9599 20.5385C41.9599 21.6725 41.2205 22.2019 39.8944 22.2019H37.3336V21.0715H39.8842C40.1336 21.0715 40.3104 21.04 40.4212 20.941C40.5117 20.8595 40.5765 20.741 40.5765 20.5973C40.5765 20.4436 40.5063 20.3217 40.416 20.2486C40.3155 20.1682 40.1769 20.1317 39.9478 20.1317C38.7183 20.0915 37.1784 20.1682 37.1784 18.5001C37.1784 17.7355 37.6797 16.9307 39.0582 16.9307H41.6941V18.0527H39.2823C39.0432 18.0527 38.8878 18.0614 38.7555 18.1479C38.6115 18.2332 38.5581 18.3599 38.5581 18.527C38.5581 18.7259 38.6803 18.8612 38.8458 18.9198C38.9845 18.966 39.1335 18.9795 39.3574 18.9795L40.0652 18.9978C40.7789 19.0144 41.2689 19.1327 41.5666 19.4217ZM46.7839 18.0105H44.3876C44.1485 18.0105 43.9894 18.0192 43.8556 18.1058C43.7169 18.1911 43.6635 18.3178 43.6635 18.4851C43.6635 18.6839 43.7806 18.8192 43.951 18.8777C44.0897 18.924 44.2387 18.9375 44.4576 18.9375L45.1703 18.9557C45.8893 18.9728 46.3692 19.0912 46.6619 19.38C46.7154 19.4202 46.7472 19.4654 46.7839 19.5105V18.0105H46.7839Z" fill="white"/>
</g>
</svg>
