<svg width="47" height="30" viewBox="0 0 47 30" fill="none" xmlns="http://www.w3.org/2000/svg">
<g id="&#240;&#159;&#166;&#134; icon &#34;JCB&#34;">
<path id="Vector" fill-rule="evenodd" clip-rule="evenodd" d="M0.341309 2.54807C0.341309 1.14081 1.45252 0 2.82197 0H44.3824C45.7524 0 46.863 1.14054 46.863 2.54807V27.4519C46.863 28.8592 45.7518 30 44.3824 30H2.82197C1.45194 30 0.341309 28.8595 0.341309 27.4519L0.341309 2.54807ZM11.4557 16.4936C11.4557 16.4936 11.4388 10.7928 11.4576 8.16788C11.7091 6.63355 13.2386 5.48514 14.7367 5.62527H18.9119C18.9071 10.8445 18.9077 16.0639 18.8993 21.283C18.8531 22.8272 17.5419 24.1791 16.0349 24.2177C14.5091 24.2222 12.9833 24.2183 11.4575 24.2196V17.6998C12.5904 17.913 13.7294 18.1426 14.8885 18.0732C16.0003 18.0138 17.341 17.8391 17.9777 16.7711C18.4489 15.9822 18.2377 15.041 18.2768 14.1685L18.2624 11.9374C17.4032 11.9423 16.5439 11.9472 15.6847 11.9521C15.6722 13.2501 15.7102 14.5509 15.6645 15.847C15.5654 16.709 14.6671 17.1517 13.8956 17.0721C13.0034 17.0636 12.2092 16.7216 11.4557 16.4936ZM19.8712 12.9017C19.8807 11.4341 19.8515 9.96501 19.8868 8.49839C19.9913 7.10074 21.1351 5.92436 22.4798 5.7537C23.832 5.70797 25.1887 5.7465 26.5427 5.73378H27.3306C27.3271 10.978 27.3376 16.2227 27.3253 21.4667C27.2277 23.0959 25.6971 24.4637 24.1108 24.309H19.8712V17.1726C20.9766 18.0691 22.4698 18.2038 23.8322 18.1858C24.7267 18.1619 25.6185 18.0254 26.481 17.7809C26.4748 17.3497 26.4685 16.9185 26.4623 16.4873C25.2441 17.0894 23.7341 17.5149 22.4632 16.8297C21.4536 16.2363 21.335 14.7424 21.8747 13.7811C22.5413 12.7839 23.8878 12.7542 24.936 12.9651C25.4504 13.0121 26.1414 13.4847 26.481 13.474V12.2895C24.7228 11.8331 22.8388 11.6854 21.0774 12.2022C20.6394 12.356 20.2106 12.5735 19.8712 12.9017ZM28.1867 17.9096V24.2124C29.7628 24.2086 31.3398 24.2201 32.9154 24.2067C34.4138 24.0686 35.715 22.6632 35.6374 21.096V5.6247C34.0827 5.63057 32.5272 5.6129 30.9728 5.63365C29.4096 5.73056 28.0807 7.22962 28.1867 8.84392V11.9503C29.7516 11.9576 31.3175 11.9358 32.8816 11.9614C33.7036 11.9821 34.5803 12.6432 34.4313 13.5695C34.3689 14.2784 33.7122 14.7434 33.0669 14.8206C33.8732 14.8866 34.8141 15.4211 34.7982 16.3587C34.8193 17.3698 33.7554 17.944 32.8817 17.9096L28.1867 17.9096ZM29.6791 12.9464V14.4614H31.2901C31.2901 14.4614 32.0451 14.4592 32.0451 13.7028C32.0451 12.9464 31.2901 12.9464 31.2901 12.9464H29.6791ZM31.4023 15.3512H29.6791V16.9789H31.4023C31.4073 16.9789 32.2519 17.0294 32.2519 16.165C32.2519 15.3007 31.4023 15.3512 31.4023 15.3512Z" fill="#585DFB"/>
</g>
</svg>
