<svg width="32" height="32" viewBox="0 0 32 32" fill="none" xmlns="http://www.w3.org/2000/svg">
<g id="layer1">
<path id="path55487" d="M5.45485 12.2945C4.40496 12.317 3.49342 13.0899 3.49967 14.3241C3.5033 15.0408 4.05677 15.6072 4.5983 16.2048C5.43421 17.1272 5.67954 16.9644 5.64106 17.8993C5.62692 18.2415 5.05927 18.7759 4.44933 18.7745C3.54567 18.7729 2.91404 17.9054 3.1645 16.8566H2.90381L2.21484 19.3517H2.47553C2.55172 19.0956 3.06669 19.1186 3.27623 19.1097C3.67091 19.093 3.89616 19.4107 4.71002 19.4076C5.82358 19.4034 6.91788 18.6751 6.90727 17.3221C6.90183 16.62 6.47097 16.143 5.90175 15.5903C5.02612 14.7406 4.68479 14.3343 4.84037 13.6538C4.96907 13.0907 5.37137 12.9329 5.7714 12.9276C6.52077 12.918 6.84328 13.708 6.94451 14.529H7.18658L7.80107 12.4434H7.54038C7.48321 12.6898 7.18192 12.7022 6.94451 12.6855C6.83756 12.6779 6.77721 12.6994 6.51623 12.611C6.23803 12.5167 5.79937 12.2872 5.45485 12.2945ZM8.08038 12.5738L8.00589 12.9834C8.41727 12.9852 8.5657 12.976 8.56452 13.7469V19.3517C8.56452 19.3517 8.67301 19.5977 8.82521 19.3517C8.97751 19.1056 11.4507 15.0131 11.4507 15.0131V15.1435L11.4321 19.3517C11.4321 19.3517 11.5896 19.5977 11.7487 19.3517C11.9078 19.1056 15.3238 13.4676 15.3238 13.4676C15.4796 13.1878 15.598 12.9931 15.9942 12.9834L16.0873 12.5738H13.9832L13.9087 12.9834C14.3693 12.9843 14.676 12.9118 14.6907 13.1883C14.6969 13.3042 14.6759 13.3973 14.5976 13.5421L12.8659 16.3724L12.8287 16.3166V13.7469C12.8303 13.6313 12.8309 13.5174 12.8287 13.4303C12.8172 12.994 12.9371 12.9843 13.2756 12.9834L13.35 12.5738H11.0038L10.9293 12.9834C11.2827 12.9931 11.4371 13.0955 11.4321 13.4117V13.989L9.92383 16.4283L9.86797 16.4655V13.7283C9.86806 13.632 9.86887 13.4808 9.86797 13.3745C9.86652 13.2254 9.83393 12.9843 10.259 12.9834L10.3707 12.5738H8.08038ZM16.4038 12.5738L16.3294 12.9834C16.5217 12.9735 16.718 13.0461 16.739 13.2628C16.7481 13.3571 16.6924 13.4955 16.6459 13.6724L15.3611 18.4579C15.2852 18.7758 14.9029 18.9461 14.3928 18.9421L14.3183 19.3517H17.0556L17.1487 18.9421C16.6652 18.9323 16.6956 18.7984 16.7018 18.6255C16.7056 18.5174 16.7579 18.4181 16.7949 18.2904L18.0983 13.4862C18.2324 13.0368 18.5556 12.9934 19.048 12.9834L19.1411 12.5738H16.4038ZM19.5135 12.5738L19.4204 12.9834C19.8282 13.0143 20.4071 13.0098 20.2583 13.4862C20.2259 13.5904 20.2616 13.5426 20.2211 13.7097L18.9735 18.3648C18.8764 18.797 18.5742 18.9323 18.2101 18.9421L18.0983 19.3517H21.0032L21.1149 18.9421C20.4796 18.9404 20.2226 18.8554 20.3514 18.3648C20.3788 18.2603 20.4309 18.0752 20.4632 17.9179L21.059 15.8697H21.1894C21.7572 15.8675 21.9175 15.9382 21.9342 16.2421C21.9447 16.4373 21.9394 16.5957 21.9528 16.7076H22.2694L22.7535 14.7152L22.4928 14.6779C22.2243 15.3643 21.6516 15.374 21.4501 15.3669H21.1894L21.599 13.7283C21.7772 13.1229 21.835 13.1565 22.288 13.151C23.0772 13.1416 23.5456 13.271 23.4797 14.38H23.7404L24.2246 12.5738H19.5135ZM24.597 12.5738L24.0942 14.38H24.3921C24.5376 13.8755 24.5415 13.7907 24.839 13.5234C25.1446 13.2564 25.4729 13.151 25.9935 13.151L24.6342 18.1228C24.54 18.9348 24.0728 18.9321 23.4797 18.9421L23.3866 19.3517H26.459L26.5335 18.9793C26.1404 19.0158 25.8983 18.7573 25.9749 18.4579C26.0043 18.3428 26.0584 18.1718 26.1053 17.9738L27.3715 13.151C28.3359 13.1505 28.5292 13.5377 28.4701 14.38H28.7494L29.2335 12.5738H24.597ZM12.959 18.5883C12.7976 18.5877 12.6279 18.7892 12.5866 19.0352C12.5451 19.2812 12.6487 19.4815 12.81 19.4821C12.9712 19.4828 13.141 19.2812 13.1825 19.0352C13.2239 18.7894 13.1202 18.589 12.959 18.5883ZM17.7259 18.5883C17.5646 18.5877 17.3949 18.7892 17.3535 19.0352C17.312 19.2812 17.4157 19.4815 17.577 19.4821C17.7382 19.4828 17.908 19.2812 17.9494 19.0352C17.9909 18.7894 17.8872 18.589 17.7259 18.5883ZM21.8225 18.5883C21.6612 18.5877 21.4914 18.7892 21.4501 19.0352C21.4085 19.2812 21.4936 19.4815 21.6549 19.4821C21.8162 19.4828 21.9859 19.2812 22.0273 19.0352C22.0688 18.7894 21.9837 18.589 21.8225 18.5883ZM7.14934 18.6069C6.98816 18.6062 6.83692 18.8078 6.79555 19.0538C6.7541 19.2998 6.83919 19.5 7.00037 19.5007C7.16166 19.5014 7.33143 19.2998 7.37279 19.0538C7.41426 18.8078 7.31063 18.6076 7.14934 18.6069ZM27.297 18.6069C27.1357 18.6064 26.9659 18.8078 26.9246 19.0538C26.883 19.2998 26.9867 19.5002 27.148 19.5007C27.3093 19.5014 27.4791 19.2998 27.5204 19.0538C27.562 18.808 27.4582 18.6076 27.297 18.6069Z" fill="#585DFB"/>
<path id="path55525" d="M1.6979 11.0887H30.0518M1.6979 20.9347H30.0518M4.71675 26.0436H27.0097M4.71675 5.97983H27.0097M15.84 11.0887V1.01035M15.84 20.9347V30.9898M16.2523 1.02755C16.2523 1.02755 22.3597 4.32507 23.5672 11.0594M15.4601 1.03284C15.4601 1.03284 9.23504 4.28643 7.97652 11.0115M15.4354 30.9436C15.4354 30.9436 9.28158 27.68 8.07404 20.9456M16.3029 30.9443C16.3029 30.9443 22.4354 27.7244 23.6937 20.9993M15.8633 0.999999C7.57912 0.999999 0.863281 7.71584 0.863281 16.0001C0.863281 24.2841 7.57912 31 15.8633 31C24.1474 31 30.8635 24.2841 30.8635 16.0001C30.8635 7.71584 24.1474 0.999999 15.8633 0.999999Z" stroke="#585DFB"/>
</g>
</svg>
