<svg width="49" height="30" viewBox="0 0 49 30" fill="none" xmlns="http://www.w3.org/2000/svg">
<g id="&#240;&#159;&#166;&#134; icon &#34;mastercard old&#34;">
<path id="Vector" fill-rule="evenodd" clip-rule="evenodd" d="M0.570801 2.54807C0.570801 1.14081 1.71184 0 3.11806 0H45.7942C47.2011 0 48.3415 1.14054 48.3415 2.54807V27.4519C48.3415 28.8592 47.2005 30 45.7942 30H3.11806C1.71125 30 0.570801 28.8595 0.570801 27.4519L0.570801 2.54807ZM45.4099 14.9988C45.4099 22.1556 39.5752 27.98 32.4037 27.98C29.4126 27.98 26.6551 26.9646 24.4553 25.2665C22.2569 26.9646 19.4994 27.98 16.5081 27.98C9.33685 27.98 3.50235 22.1556 3.50235 14.9988C3.50235 7.84166 9.33685 2.02 16.5081 2.02C19.4994 2.02 22.2569 3.03162 24.4553 4.73217C26.6551 3.03162 29.4126 2.02 32.4037 2.02C39.5752 2.02 45.4099 7.84166 45.4099 14.9988ZM32.4037 3.18062C29.7656 3.18062 27.33 4.04324 25.3624 5.49894C27.147 7.1565 28.4668 9.30898 29.0974 11.7348H27.892C27.2744 9.59013 26.0672 7.69673 24.4553 6.23957C22.845 7.69673 21.637 9.59013 21.0217 11.7348H19.8146C20.4467 9.30898 21.7665 7.1565 23.551 5.49894C21.5823 4.04324 19.1476 3.18062 16.5081 3.18062C9.96878 3.18062 4.66759 8.47105 4.66759 14.9988C4.66759 21.5248 9.96878 26.8169 16.5081 26.8169C19.1476 26.8169 21.5823 25.9543 23.551 24.4986C21.8718 22.9379 20.605 20.9382 19.9353 18.6873H21.1542C21.8017 20.6582 22.9512 22.3978 24.4553 23.7578C25.961 22.3978 27.112 20.6582 27.7596 18.6873H28.9781C28.3073 20.9382 27.0407 22.9379 25.3624 24.4986C27.33 25.9543 29.7656 26.8169 32.4037 26.8169C38.9431 26.8169 44.2444 21.5248 44.2444 14.9988C44.2444 8.47105 38.9431 3.18062 32.4037 3.18062ZM11.7156 12.1818H9.81963L8.63475 15.7072L8.5854 12.1818H6.82833L5.87455 17.8778H7.01796L7.75234 13.5261L7.85489 17.8778H8.68795L10.2491 13.5001L9.54965 17.8778H10.7708L11.7156 12.1818ZM13.9866 15.8135C13.8582 15.8004 13.8023 15.7953 13.714 15.7953C13.021 15.7953 12.6719 16.0321 12.6719 16.4985C12.6719 16.7875 12.8432 16.9713 13.108 16.9713C13.6064 16.9713 13.9645 16.4985 13.9866 15.8135ZM14.8742 17.8778H13.8619L13.8855 17.3973C13.5765 17.7768 13.1651 17.9583 12.606 17.9583C11.9428 17.9583 11.4912 17.4415 11.4912 16.6941C11.4912 15.5647 12.2788 14.9081 13.6337 14.9081C13.7725 14.9081 13.9503 14.921 14.1319 14.9443C14.1697 14.7901 14.1788 14.7254 14.1788 14.6425C14.1788 14.3369 13.9671 14.2216 13.3961 14.2216C12.7992 14.2138 12.3061 14.3628 12.1036 14.4301C12.1167 14.3524 12.2737 13.3888 12.2737 13.3888C12.8811 13.2101 13.2832 13.1428 13.7349 13.1428C14.7834 13.1428 15.3389 13.6115 15.3376 14.5001C15.3389 14.7384 15.2999 15.0323 15.239 15.4198C15.1326 16.0892 14.9054 17.5269 14.8742 17.8778ZM30.8261 12.0419C29.2077 12.0419 28.0759 13.4639 28.0759 15.5001C28.0759 17.0127 28.8951 17.9583 30.2097 17.9583C30.547 17.9583 30.8389 17.9141 31.288 17.7899L31.5021 16.4933C31.0985 16.6916 30.7664 16.786 30.4649 16.786C29.7551 16.786 29.3267 16.2627 29.3267 15.3988C29.3267 14.1439 29.9644 13.2644 30.8764 13.2644C31.2152 13.2644 31.5318 13.3525 31.9678 13.5727L32.1677 12.3372C31.9887 12.2673 31.3593 12.0419 30.8261 12.0419ZM34.3455 15.8135C34.2183 15.8004 34.1612 15.7953 34.0716 15.7953C33.3798 15.7953 33.0294 16.0321 33.0294 16.4985C33.0294 16.7875 33.2009 16.9713 33.4683 16.9713C33.9654 16.9713 34.3248 16.4985 34.3455 15.8135ZM35.2331 17.8778H34.2224L34.2456 17.3973C33.9354 17.7768 33.5227 17.9583 32.9645 17.9583C32.3028 17.9583 31.8485 17.4415 31.8485 16.6941C31.8485 15.5647 32.6389 14.9081 33.9924 14.9081C34.1313 14.9081 34.3091 14.921 34.491 14.9443C34.5282 14.7901 34.5375 14.7254 34.5375 14.6425C34.5375 14.3369 34.326 14.2216 33.7561 14.2216C33.1581 14.2138 32.6662 14.3628 32.4637 14.4301C32.4753 14.3524 32.6325 13.3888 32.6325 13.3888C33.241 13.2101 33.6432 13.1428 34.0923 13.1428C35.1423 13.1428 35.6979 13.6115 35.6964 14.5001C35.699 14.7384 35.6589 15.0323 35.5977 15.4198C35.4927 16.0892 35.2645 17.5269 35.2331 17.8778ZM20.8762 16.782C20.7945 16.8107 20.6868 16.826 20.548 16.826C20.2572 16.826 20.1289 16.7226 20.1289 16.4829C20.1315 16.3353 20.3326 15.2396 20.4729 14.3601H21.0995L21.2656 13.2462H20.6414L20.7828 12.5471H19.5693C19.5693 12.5471 19.1101 15.2733 19.0413 15.7046C18.9634 16.1981 18.8648 16.7355 18.8725 16.9401C18.8725 17.5995 19.2126 17.9583 19.8367 17.9583C20.1199 17.9583 20.3803 17.9115 20.7156 17.808L20.8762 16.782ZM24.6112 17.7717C24.1933 17.8988 23.7908 17.9583 23.3654 17.9583C22.0051 17.9555 21.2968 17.2472 21.2968 15.8912C21.2968 14.3084 22.1987 13.1428 23.4224 13.1428C24.423 13.1428 25.0629 13.7942 25.0629 14.82C25.0629 15.1593 25.0175 15.4895 24.9122 15.9598H22.4958C22.414 16.6292 22.845 16.9091 23.551 16.9091C23.9855 16.9091 24.3764 16.8209 24.8123 16.619L24.6112 17.7717ZM23.9285 15.0247C23.9364 14.9289 24.0568 14.1956 23.3639 14.1956C22.9771 14.1956 22.6995 14.4923 22.588 15.0247H23.9285ZM15.8126 14.7099C15.8126 15.2967 16.0954 15.6994 16.7417 16.0038C17.2362 16.2369 17.3127 16.3042 17.3127 16.5155C17.3127 16.8028 17.0947 16.9324 16.6106 16.9324C16.2473 16.9324 15.9073 16.8779 15.5166 16.7512C15.5166 16.7512 15.3558 17.7717 15.348 17.8211C15.6271 17.8806 15.8735 17.9373 16.6198 17.9583C17.9083 17.9583 18.5028 17.4673 18.5028 16.4105C18.5028 15.7721 18.2548 15.4016 17.6422 15.1204C17.1311 14.8847 17.0714 14.8329 17.0714 14.6166C17.0714 14.3653 17.2751 14.2384 17.6709 14.2384C17.9096 14.2384 18.2379 14.2644 18.5468 14.3084L18.7208 13.2334C18.4041 13.1841 17.9253 13.1428 17.6462 13.1428C16.2797 13.1428 15.8074 13.8538 15.8126 14.7099ZM42.1109 17.8778H40.9549L41.0131 17.4466C40.677 17.8029 40.3333 17.9583 39.8869 17.9583C38.999 17.9583 38.4125 17.1954 38.4125 16.0376C38.4125 14.4948 39.322 13.1971 40.3991 13.1971C40.8717 13.1971 41.2323 13.3888 41.5661 13.8279L41.8359 12.1818H43.0404L42.1109 17.8778ZM40.3086 16.8081C40.8769 16.8081 41.278 16.1643 41.278 15.2473C41.278 14.658 41.051 14.3394 40.6301 14.3394C40.076 14.3394 39.6829 14.9831 39.6829 15.8937C39.6829 16.501 39.8933 16.8081 40.3086 16.8081ZM36.5412 13.2462C36.3882 14.6788 36.1169 16.1306 35.9054 17.5658L35.8495 17.8778H37.0695C37.5069 15.0454 37.6131 14.4923 38.297 14.5622C38.4058 13.9806 38.6084 13.4744 38.7615 13.218C38.2493 13.1115 37.9635 13.4018 37.5913 13.9496C37.621 13.7113 37.6742 13.482 37.6626 13.2462H36.5412ZM25.8676 13.2462C25.7142 14.6788 25.4418 16.1306 25.2303 17.5658L25.1744 17.8778H26.3955C26.8329 15.0454 26.938 14.4923 27.6219 14.5622C27.7322 13.9806 27.9359 13.4744 28.0867 13.218C27.5765 13.1115 27.2887 13.4018 26.9159 13.9496C26.9459 13.7113 26.9988 13.482 26.9886 13.2462H25.8676Z" fill="#585DFB"/>
</g>
</svg>
