<svg width="49" height="30" viewBox="0 0 49 30" fill="none" xmlns="http://www.w3.org/2000/svg">
<g id="&#240;&#159;&#166;&#134; icon &#34;Visa&#34;">
<path id="Vector" d="M0.799805 2.54807C0.799805 1.14081 1.94085 0 3.34706 0H46.0232C47.4301 0 48.5705 1.14054 48.5705 2.54807V27.4519C48.5705 28.8592 47.4295 30 46.0232 30H3.34706C1.94025 30 0.799805 28.8595 0.799805 27.4519L0.799805 2.54807ZM34.2082 9.08838C33.5349 8.83576 32.4798 8.56468 31.1622 8.56468C27.804 8.56468 25.4384 10.2558 25.4182 12.6796C25.3993 14.4712 27.107 15.4707 28.3962 16.0672C29.7191 16.6783 30.1638 17.0681 30.1575 17.6139C30.1491 18.4497 29.1011 18.8315 28.1242 18.8315C26.7639 18.8315 26.0412 18.6425 24.9251 18.177L24.4872 17.9788L24.0102 20.7701C24.804 21.1181 26.2719 21.4197 27.796 21.4353C31.3686 21.4353 33.6878 19.7635 33.7142 17.1753C33.727 15.7569 32.8215 14.6774 30.8607 13.7875C29.6728 13.2107 28.9452 12.8258 28.953 12.2418C28.953 11.7235 29.5688 11.1693 30.8993 11.1693C32.0107 11.152 32.8157 11.3944 33.443 11.647L33.7475 11.7909L34.2082 9.08838ZM42.9233 8.79328H40.2972C39.4836 8.79328 38.8748 9.01532 38.5175 9.82729L33.47 21.2542H37.0389C37.0389 21.2542 37.6224 19.7178 37.7544 19.3805C38.1444 19.3805 41.6114 19.3858 42.107 19.3858C42.2087 19.8223 42.5205 21.2542 42.5205 21.2542H45.6742L42.9233 8.79328ZM38.7324 16.8301C39.0135 16.1117 40.0865 13.3446 40.0865 13.3446C40.0665 13.3777 40.3655 12.6226 40.5372 12.1545L40.7669 13.2295C40.7669 13.2295 41.4177 16.2059 41.5537 16.83H38.7324V16.8301ZM18.4845 21.2503H21.8817L24.0081 8.78137H20.6095L18.4845 21.2503ZM11.9519 15.5648L10.7604 9.83545C10.5547 9.04589 9.95799 8.81029 9.21984 8.78277H3.73952L3.69614 9.0422C5.02926 9.36491 6.22136 9.83056 7.2661 10.4098L10.2877 21.2395L13.8835 21.2354L19.2341 8.79048H15.634L12.3067 17.2933L11.9521 15.5654C11.9521 15.5652 11.952 15.565 11.9519 15.5648Z" fill="#585DFB"/>
</g>
</svg>
